<?xml version="1.0" encoding="UTF-8"?>
<svg width="260px" height="260px" viewBox="0 0 260 260" version="1.1" xmlns="http://www.w3.org/2000/svg" xmlns:xlink="http://www.w3.org/1999/xlink">
    <title>logo</title>
    <defs>
        <path d="M76.916556,-3.10752092e-15 L183.083444,-3.10752092e-15 C209.829006,-3.10752092e-15 219.527593,2.78476833 229.305371,8.01398111 C239.083149,13.2431939 246.756806,20.9168511 251.986019,30.6946289 C257.215232,40.4724067 260,50.1709938 260,76.916556 L260,183.083444 C260,209.829006 257.215232,219.527593 251.986019,229.305371 C246.756806,239.083149 239.083149,246.756806 229.305371,251.986019 C219.527593,257.215232 209.829006,260 183.083444,260 L76.916556,260 C50.1709938,260 40.4724067,257.215232 30.6946289,251.986019 C20.9168511,246.756806 13.2431939,239.083149 8.01398111,229.305371 C2.78476833,219.527593 -2.07168062e-15,209.829006 -2.07168062e-15,183.083444 L-2.07168062e-15,76.916556 C-2.07168062e-15,50.1709938 2.78476833,40.4724067 8.01398111,30.6946289 C13.2431939,20.9168511 20.9168511,13.2431939 30.6946289,8.01398111 C40.4724067,2.78476833 50.1709938,-3.10752092e-15 76.916556,-3.10752092e-15 Z" id="path-1"></path>
    </defs>
    <g id="页面-1" stroke="none" stroke-width="1" fill="none" fill-rule="evenodd">
        <g id="logo">
            <g id="蒙版" fill="#FFFFFF" fill-opacity="0" fill-rule="nonzero">
                <path d="M76.916556,-3.10752092e-15 L183.083444,-3.10752092e-15 C209.829006,-3.10752092e-15 219.527593,2.78476833 229.305371,8.01398111 C239.083149,13.2431939 246.756806,20.9168511 251.986019,30.6946289 C257.215232,40.4724067 260,50.1709938 260,76.916556 L260,183.083444 C260,209.829006 257.215232,219.527593 251.986019,229.305371 C246.756806,239.083149 239.083149,246.756806 229.305371,251.986019 C219.527593,257.215232 209.829006,260 183.083444,260 L76.916556,260 C50.1709938,260 40.4724067,257.215232 30.6946289,251.986019 C20.9168511,246.756806 13.2431939,239.083149 8.01398111,229.305371 C2.78476833,219.527593 -2.07168062e-15,209.829006 -2.07168062e-15,183.083444 L-2.07168062e-15,76.916556 C-2.07168062e-15,50.1709938 2.78476833,40.4724067 8.01398111,30.6946289 C13.2431939,20.9168511 20.9168511,13.2431939 30.6946289,8.01398111 C40.4724067,2.78476833 50.1709938,-3.10752092e-15 76.916556,-3.10752092e-15 Z" id="path-1"></path>
            </g>
            <g id="编组-Clipped">
                <mask id="mask-2" fill="white">
                    <use xlink:href="#path-1"></use>
                </mask>
                <g id="path-1"></g>
                <g id="编组" mask="url(#mask-2)">
                    <g transform="translate(48.750000, 27.929688)">
                        <g transform="translate(0.000000, 0.000000)">
                            <path d="M67.6900632,130.470038 C68.7367271,131.075808 69.7002384,131.815017 70.556397,132.669098 L104.750749,166.780474 C112.248374,174.259906 112.263123,186.401211 104.783691,193.898836 C104.757259,193.925332 104.73075,193.951751 104.704163,193.978092 L99.6820684,198.953792 C94.4707828,204.116935 86.5866506,205.469315 79.9526054,202.338023 L42.1416101,184.491102 C33.4265597,180.377568 29.6962935,169.977946 33.8098274,161.262896 C34.0175551,160.822798 34.243603,160.391583 34.4873783,159.970382 L48.6155277,135.559413 C52.4774232,128.886733 61.0173837,126.608143 67.6900632,130.470038 Z M82.588708,1.39374245 C84.1882766,2.31289299 85.5165738,3.63838579 86.4391029,5.23600829 L93.1433335,16.8462969 C96.2642306,22.251021 96.2609439,28.911044 93.1347139,34.3126852 L18.5223462,163.231299 C17.0466247,165.781117 13.7832801,166.651845 11.2334619,165.176123 C10.4324316,164.712523 9.76580283,164.048486 9.29908439,163.249268 C6.22857958,157.991275 3.88623389,152.340709 2.33623631,146.452416 L1.12002991,141.832163 C-1.15583022,133.186388 0.0656489466,123.992097 4.51994019,116.240434 L68.2947291,5.25518215 C71.1755953,0.241701758 77.5752276,-1.48712368 82.588708,1.39374245 Z M112.197421,53.5674151 C114.313668,54.7921747 116.071103,56.5513022 117.293824,58.6687277 L131.979345,84.1001154 C135.834709,90.7765714 133.547761,99.3142977 126.871305,103.169661 C124.748952,104.395228 122.341348,105.040446 119.890553,105.040446 L87.4608575,105.040446 C80.7149032,105.040446 75.2462267,99.5717697 75.2462267,92.8258153 C75.2462267,90.6773809 75.8128939,88.5669518 76.8890504,86.707474 L93.1229658,58.6570903 C96.9847562,51.9843499 105.524681,49.7056247 112.197421,53.5674151 Z" id="形状结合" fill="#000000" fill-rule="nonzero"></path>
                            <path d="M156.754135,127.003901 C160.089093,132.779212 159.111238,140.076936 154.373501,144.770551 L138.148559,160.844391 C132.012582,166.923223 122.11941,166.906076 116.004543,160.806011 L87.2331242,132.104238 C83.8217764,128.701148 83.8150822,123.176954 87.2181723,119.765607 C88.8549814,118.124826 91.0773561,117.20271 93.3949639,117.20271 L139.776497,117.20271 C146.78014,117.20271 153.251857,120.938832 156.754135,127.003901 Z" id="路径" fill="#2161FF" fill-rule="nonzero"></path>
                        </g>
                    </g>
                </g>
            </g>
        </g>
    </g>
</svg>