<?xml version="1.0" encoding="UTF-8"?>
<svg width="2695px" height="260px" viewBox="0 0 2695 260" version="1.1" xmlns="http://www.w3.org/2000/svg" xmlns:xlink="http://www.w3.org/1999/xlink">
    <title>Keystone Etherum Ext</title>
    <defs>
        <path d="M76.916556,-3.10752092e-15 L183.083444,-3.10752092e-15 C209.829006,-3.10752092e-15 219.527593,2.78476833 229.305371,8.01398111 C239.083149,13.2431939 246.756806,20.9168511 251.986019,30.6946289 C257.215232,40.4724067 260,50.1709938 260,76.916556 L260,183.083444 C260,209.829006 257.215232,219.527593 251.986019,229.305371 C246.756806,239.083149 239.083149,246.756806 229.305371,251.986019 C219.527593,257.215232 209.829006,260 183.083444,260 L76.916556,260 C50.1709938,260 40.4724067,257.215232 30.6946289,251.986019 C20.9168511,246.756806 13.2431939,239.083149 8.01398111,229.305371 C2.78476833,219.527593 -2.07168062e-15,209.829006 -2.07168062e-15,183.083444 L-2.07168062e-15,76.916556 C-2.07168062e-15,50.1709938 2.78476833,40.4724067 8.01398111,30.6946289 C13.2431939,20.9168511 20.9168511,13.2431939 30.6946289,8.01398111 C40.4724067,2.78476833 50.1709938,-3.10752092e-15 76.916556,-3.10752092e-15 Z" id="path-1"></path>
    </defs>
    <g id="页面-1" stroke="none" stroke-width="1" fill="none" fill-rule="evenodd">
        <g id="Keystone-Etherum-Ext">
            <g id="logo">
                <g id="蒙版" fill="#FFFFFF" fill-opacity="0" fill-rule="nonzero">
                    <path d="M76.916556,-3.10752092e-15 L183.083444,-3.10752092e-15 C209.829006,-3.10752092e-15 219.527593,2.78476833 229.305371,8.01398111 C239.083149,13.2431939 246.756806,20.9168511 251.986019,30.6946289 C257.215232,40.4724067 260,50.1709938 260,76.916556 L260,183.083444 C260,209.829006 257.215232,219.527593 251.986019,229.305371 C246.756806,239.083149 239.083149,246.756806 229.305371,251.986019 C219.527593,257.215232 209.829006,260 183.083444,260 L76.916556,260 C50.1709938,260 40.4724067,257.215232 30.6946289,251.986019 C20.9168511,246.756806 13.2431939,239.083149 8.01398111,229.305371 C2.78476833,219.527593 -2.07168062e-15,209.829006 -2.07168062e-15,183.083444 L-2.07168062e-15,76.916556 C-2.07168062e-15,50.1709938 2.78476833,40.4724067 8.01398111,30.6946289 C13.2431939,20.9168511 20.9168511,13.2431939 30.6946289,8.01398111 C40.4724067,2.78476833 50.1709938,-3.10752092e-15 76.916556,-3.10752092e-15 Z" id="path-1"></path>
                </g>
                <g id="编组-Clipped">
                    <mask id="mask-2" fill="white">
                        <use xlink:href="#path-1"></use>
                    </mask>
                    <g id="path-1"></g>
                    <g id="编组" mask="url(#mask-2)">
                        <g transform="translate(48.750000, 27.929688)">
                            <g transform="translate(0.000000, 0.000000)">
                                <path d="M67.6900632,130.470038 C68.7367271,131.075808 69.7002384,131.815017 70.556397,132.669098 L104.750749,166.780474 C112.248374,174.259906 112.263123,186.401211 104.783691,193.898836 C104.757259,193.925332 104.73075,193.951751 104.704163,193.978092 L99.6820684,198.953792 C94.4707828,204.116935 86.5866506,205.469315 79.9526054,202.338023 L42.1416101,184.491102 C33.4265597,180.377568 29.6962935,169.977946 33.8098274,161.262896 C34.0175551,160.822798 34.243603,160.391583 34.4873783,159.970382 L48.6155277,135.559413 C52.4774232,128.886733 61.0173837,126.608143 67.6900632,130.470038 Z M82.588708,1.39374245 C84.1882766,2.31289299 85.5165738,3.63838579 86.4391029,5.23600829 L93.1433335,16.8462969 C96.2642306,22.251021 96.2609439,28.911044 93.1347139,34.3126852 L18.5223462,163.231299 C17.0466247,165.781117 13.7832801,166.651845 11.2334619,165.176123 C10.4324316,164.712523 9.76580283,164.048486 9.29908439,163.249268 C6.22857958,157.991275 3.88623389,152.340709 2.33623631,146.452416 L1.12002991,141.832163 C-1.15583022,133.186388 0.0656489466,123.992097 4.51994019,116.240434 L68.2947291,5.25518215 C71.1755953,0.241701758 77.5752276,-1.48712368 82.588708,1.39374245 Z M112.197421,53.5674151 C114.313668,54.7921747 116.071103,56.5513022 117.293824,58.6687277 L131.979345,84.1001154 C135.834709,90.7765714 133.547761,99.3142977 126.871305,103.169661 C124.748952,104.395228 122.341348,105.040446 119.890553,105.040446 L87.4608575,105.040446 C80.7149032,105.040446 75.2462267,99.5717697 75.2462267,92.8258153 C75.2462267,90.6773809 75.8128939,88.5669518 76.8890504,86.707474 L93.1229658,58.6570903 C96.9847562,51.9843499 105.524681,49.7056247 112.197421,53.5674151 Z" id="形状结合" fill="#000000" fill-rule="nonzero"></path>
                                <path d="M156.754135,127.003901 C160.089093,132.779212 159.111238,140.076936 154.373501,144.770551 L138.148559,160.844391 C132.012582,166.923223 122.11941,166.906076 116.004543,160.806011 L87.2331242,132.104238 C83.8217764,128.701148 83.8150822,123.176954 87.2181723,119.765607 C88.8549814,118.124826 91.0773561,117.20271 93.3949639,117.20271 L139.776497,117.20271 C146.78014,117.20271 153.251857,120.938832 156.754135,127.003901 Z" id="路径" fill="#2161FF" fill-rule="nonzero"></path>
                            </g>
                        </g>
                    </g>
                </g>
            </g>
            <path d="M290.644697,181.358491 L290.644697,154.943396 L301.837082,143.018868 L332.086772,181.358491 L366.873916,181.358491 L321.348132,122.490566 L364.605189,75.6981132 L331.633027,75.6981132 L290.644697,119.622642 L290.644697,75.6981132 L261,75.6981132 L261,181.358491 L290.644697,181.358491 Z M413.155942,182.716981 C428.482452,182.716981 440.128583,178.289308 448.094335,169.433962 L448.094335,169.433962 L432.96949,153.735849 C430.045353,156.251572 427.146424,158.062893 424.272704,159.169811 C421.398983,160.27673 417.995893,160.830189 414.063433,160.830189 C408.820153,160.830189 404.459156,159.698113 400.980442,157.433962 C397.501728,155.169811 395.157377,151.924528 393.947389,147.698113 L393.947389,147.698113 L453.539279,147.698113 C453.841776,143.169811 453.993024,140.805031 453.993024,140.603774 C453.993024,131.849057 452.052003,124.27673 448.169959,117.886792 C444.287915,111.496855 439.019428,106.616352 432.364496,103.245283 C425.709564,99.8742138 418.29839,98.1886792 410.130973,98.1886792 C401.560228,98.1886792 393.846557,100 386.98996,103.622642 C380.133364,107.245283 374.764044,112.251572 370.882,118.641509 C366.999957,125.031447 365.058935,132.251572 365.058935,140.301887 C365.058935,148.45283 367.050373,155.748428 371.033249,162.188679 C375.016124,168.628931 380.637525,173.660377 387.897451,177.283019 C395.157377,180.90566 403.576874,182.716981 413.155942,182.716981 Z M427.0708,132.603774 L393.493644,132.603774 C394.300302,128.27673 396.190908,124.855346 399.165461,122.339623 C402.140013,119.823899 405.845601,118.566038 410.282222,118.566038 C414.718843,118.566038 418.42443,119.823899 421.398983,122.339623 C424.373536,124.855346 426.264142,128.27673 427.0708,132.603774 L427.0708,132.603774 Z M479.85651,212 C488.427255,212 495.687181,209.962264 501.636287,205.886792 C507.585392,201.811321 512.627007,194.742138 516.761132,184.679245 L516.761132,184.679245 L552.153269,99.5471698 L524.7773,99.5471698 L504.510007,149.509434 L484.393963,99.5471698 L454.900515,99.5471698 L489.990156,182.415094 C488.780168,184.830189 487.292892,186.591195 485.528326,187.698113 C483.763761,188.805031 481.520243,189.358491 478.79777,189.358491 C476.478627,189.358491 474.184693,188.930818 471.915966,188.075472 C469.647239,187.220126 467.706217,186.037736 466.0929,184.528302 L466.0929,184.528302 L456.110503,204.603774 C458.832975,206.81761 462.387313,208.603774 466.773518,209.962264 C471.159724,211.320755 475.520721,212 479.85651,212 Z M587.999152,182.716981 C596.569898,182.716981 603.905448,181.559748 610.005802,179.245283 C616.106156,176.930818 620.719234,173.735849 623.845036,169.660377 C626.970837,165.584906 628.533738,160.981132 628.533738,155.849057 C628.533738,149.610063 626.895213,144.754717 623.618163,141.283019 C620.341113,137.811321 616.484278,135.421384 612.047656,134.113208 C607.611035,132.805031 602.014842,131.647799 595.259078,130.641509 C589.914966,129.836478 586.083339,129.056604 583.764196,128.301887 C581.445053,127.54717 580.285481,126.213836 580.285481,124.301887 C580.285481,122.591195 581.344221,121.207547 583.461699,120.150943 C585.579177,119.09434 588.906643,118.566038 593.444097,118.566038 C601.91401,118.566038 609.77893,120.578616 617.038855,124.603774 L617.038855,124.603774 L625.660017,105.132075 C621.727557,102.918239 616.837191,101.207547 610.988917,100 C605.140644,98.7924528 599.241954,98.1886792 593.292848,98.1886792 C584.923767,98.1886792 577.739466,99.3710692 571.739944,101.735849 C565.740422,104.100629 561.17776,107.320755 558.051959,111.396226 C554.926158,115.471698 553.363257,120.125786 553.363257,125.358491 C553.363257,131.698113 555.02699,136.628931 558.354456,140.150943 C561.681922,143.672956 565.63959,146.08805 570.227459,147.396226 C574.815329,148.704403 580.386314,149.761006 586.940413,150.566038 C592.082861,151.27044 595.838864,152 598.208423,152.754717 C600.577982,153.509434 601.762762,154.792453 601.762762,156.603774 C601.762762,158.415094 600.779647,159.798742 598.813417,160.754717 C596.847187,161.710692 593.544929,162.188679 588.906643,162.188679 C583.865028,162.188679 578.772997,161.509434 573.63055,160.150943 C568.488102,158.792453 564.051481,156.955975 560.320686,154.641509 L560.320686,154.641509 L551.699524,174.264151 C555.732816,176.779874 561.076928,178.81761 567.73186,180.377358 C574.386792,181.937107 581.142556,182.716981 587.999152,182.716981 Z M677.538236,182.716981 C681.470696,182.716981 685.176283,182.314465 688.654997,181.509434 C692.133711,180.704403 695.083056,179.54717 697.503031,178.037736 L697.503031,178.037736 L690.394354,157.962264 C687.873547,159.672956 684.94941,160.528302 681.621944,160.528302 C679.000304,160.528302 676.908034,159.698113 675.345133,158.037736 C673.782233,156.377358 673.000782,154.08805 673.000782,151.169811 L673.000782,151.169811 L673.000782,124 L691.75559,124 L691.75559,102.566038 L673.000782,102.566038 L673.000782,81.2830189 L644.263577,81.2830189 L644.263577,102.566038 L632.314949,102.566038 L632.314949,124 L644.263577,124 L644.263577,151.471698 C644.263577,161.836478 647.137297,169.63522 652.884738,174.867925 C658.632179,180.100629 666.850012,182.716981 677.538236,182.716981 Z M747.263772,182.716981 C756.137015,182.716981 764.102766,180.90566 771.161027,177.283019 C778.219289,173.660377 783.714649,168.628931 787.647109,162.188679 C791.579568,155.748428 793.545798,148.45283 793.545798,140.301887 C793.545798,132.150943 791.579568,124.880503 787.647109,118.490566 C783.714649,112.100629 778.219289,107.119497 771.161027,103.54717 C764.102766,99.9748428 756.137015,98.1886792 747.263772,98.1886792 C738.39053,98.1886792 730.449986,99.9748428 723.442141,103.54717 C716.434296,107.119497 710.938936,112.125786 706.95606,118.566038 C702.973184,125.006289 700.981746,132.251572 700.981746,140.301887 C700.981746,148.45283 702.973184,155.748428 706.95606,162.188679 C710.938936,168.628931 716.459504,173.660377 723.517765,177.283019 C730.576026,180.90566 738.491362,182.716981 747.263772,182.716981 Z M747.263772,159.924528 C742.222157,159.924528 738.088033,158.188679 734.861399,154.716981 C731.634765,151.245283 730.021449,146.440252 730.021449,140.301887 C730.021449,134.264151 731.634765,129.534591 734.861399,126.113208 C738.088033,122.691824 742.222157,120.981132 747.263772,120.981132 C752.305387,120.981132 756.439511,122.691824 759.666145,126.113208 C762.892779,129.534591 764.506096,134.264151 764.506096,140.301887 C764.506096,146.440252 762.892779,151.245283 759.666145,154.716981 C756.439511,158.188679 752.305387,159.924528 747.263772,159.924528 Z M835.592868,181.358491 L835.592868,141.811321 C835.592868,135.371069 837.080144,130.540881 840.054697,127.320755 C843.02925,124.100629 846.986918,122.490566 851.927701,122.490566 C860.901775,122.490566 865.388813,128.075472 865.388813,139.245283 L865.388813,139.245283 L865.388813,181.358491 L894.126019,181.358491 L894.126019,134.566038 C894.126019,122.389937 891.025425,113.283019 884.824239,107.245283 C878.623052,101.207547 870.430428,98.1886792 860.246365,98.1886792 C855.003086,98.1886792 850.163135,99.0691824 845.726514,100.830189 C841.289893,102.591195 837.458265,105.132075 834.231632,108.45283 L834.231632,108.45283 L834.231632,99.5471698 L806.855662,99.5471698 L806.855662,181.358491 L835.592868,181.358491 Z M956.289132,182.716981 C971.615642,182.716981 983.261773,178.289308 991.227525,169.433962 L991.227525,169.433962 L976.102679,153.735849 C973.178543,156.251572 970.279614,158.062893 967.405893,159.169811 C964.532173,160.27673 961.129083,160.830189 957.196623,160.830189 C951.953343,160.830189 947.592346,159.698113 944.113632,157.433962 C940.634918,155.169811 938.290567,151.924528 937.080579,147.698113 L937.080579,147.698113 L996.672469,147.698113 C996.974966,143.169811 997.126214,140.805031 997.126214,140.603774 C997.126214,131.849057 995.185192,124.27673 991.303149,117.886792 C987.421105,111.496855 982.152618,106.616352 975.497686,103.245283 C968.842754,99.8742138 961.43158,98.1886792 953.264163,98.1886792 C944.693418,98.1886792 936.979747,100 930.12315,103.622642 C923.266554,107.245283 917.897234,112.251572 914.01519,118.641509 C910.133146,125.031447 908.192125,132.251572 908.192125,140.301887 C908.192125,148.45283 910.183563,155.748428 914.166438,162.188679 C918.149314,168.628931 923.770715,173.660377 931.030641,177.283019 C938.290567,180.90566 946.710064,182.716981 956.289132,182.716981 Z M970.20399,132.603774 L936.626834,132.603774 C937.433492,128.27673 939.324098,124.855346 942.29865,122.339623 C945.273203,119.823899 948.97879,118.566038 953.415412,118.566038 C957.852033,118.566038 961.55762,119.823899 964.532173,122.339623 C967.506726,124.855346 969.397331,128.27673 970.20399,132.603774 L970.20399,132.603774 Z M1140.81224,181.358491 L1140.81224,158.264151 L1085.45531,158.264151 L1085.45531,138.943396 L1132.49358,138.943396 L1132.49358,116.603774 L1085.45531,116.603774 L1085.45531,98.7924528 L1138.84601,98.7924528 L1138.84601,75.6981132 L1055.81061,75.6981132 L1055.81061,181.358491 L1140.81224,181.358491 Z M1192.23672,182.716981 C1196.16918,182.716981 1199.87476,182.314465 1203.35348,181.509434 C1206.83219,180.704403 1209.78154,179.54717 1212.20151,178.037736 L1212.20151,178.037736 L1205.09284,157.962264 C1202.57203,159.672956 1199.64789,160.528302 1196.32043,160.528302 C1193.69879,160.528302 1191.60651,159.698113 1190.04361,158.037736 C1188.48071,156.377358 1187.69926,154.08805 1187.69926,151.169811 L1187.69926,151.169811 L1187.69926,124 L1206.45407,124 L1206.45407,102.566038 L1187.69926,102.566038 L1187.69926,81.2830189 L1158.96206,81.2830189 L1158.96206,102.566038 L1147.01343,102.566038 L1147.01343,124 L1158.96206,124 L1158.96206,151.471698 C1158.96206,161.836478 1161.83578,169.63522 1167.58322,174.867925 C1173.33066,180.100629 1181.54849,182.716981 1192.23672,182.716981 Z M1251.97986,181.358491 L1251.97986,141.811321 C1251.97986,135.371069 1253.46713,130.540881 1256.44168,127.320755 C1259.41624,124.100629 1263.37391,122.490566 1268.31469,122.490566 C1277.28876,122.490566 1281.7758,128.075472 1281.7758,139.245283 L1281.7758,139.245283 L1281.7758,181.358491 L1310.51301,181.358491 L1310.51301,134.566038 C1310.51301,122.389937 1307.41241,113.283019 1301.21123,107.245283 C1295.01004,101.207547 1286.81742,98.1886792 1276.63335,98.1886792 C1271.7934,98.1886792 1267.25595,98.9433962 1263.02099,100.45283 C1258.78604,101.962264 1255.10566,104.176101 1251.97986,107.09434 L1251.97986,107.09434 L1251.97986,69.3584906 L1223.24265,69.3584906 L1223.24265,181.358491 L1251.97986,181.358491 Z M1372.67612,182.716981 C1388.00263,182.716981 1399.64876,178.289308 1407.61451,169.433962 L1407.61451,169.433962 L1392.48967,153.735849 C1389.56553,156.251572 1386.6666,158.062893 1383.79288,159.169811 C1380.91916,160.27673 1377.51607,160.830189 1373.58361,160.830189 C1368.34033,160.830189 1363.97933,159.698113 1360.50062,157.433962 C1357.0219,155.169811 1354.67755,151.924528 1353.46757,147.698113 L1353.46757,147.698113 L1413.05946,147.698113 C1413.36195,143.169811 1413.5132,140.805031 1413.5132,140.603774 C1413.5132,131.849057 1411.57218,124.27673 1407.69014,117.886792 C1403.80809,111.496855 1398.5396,106.616352 1391.88467,103.245283 C1385.22974,99.8742138 1377.81857,98.1886792 1369.65115,98.1886792 C1361.08041,98.1886792 1353.36673,100 1346.51014,103.622642 C1339.65354,107.245283 1334.28422,112.251572 1330.40218,118.641509 C1326.52013,125.031447 1324.57911,132.251572 1324.57911,140.301887 C1324.57911,148.45283 1326.57055,155.748428 1330.55343,162.188679 C1334.5363,168.628931 1340.1577,173.660377 1347.41763,177.283019 C1354.67755,180.90566 1363.09705,182.716981 1372.67612,182.716981 Z M1386.59098,132.603774 L1353.01382,132.603774 C1353.82048,128.27673 1355.71109,124.855346 1358.68564,122.339623 C1361.66019,119.823899 1365.36578,118.566038 1369.8024,118.566038 C1374.23902,118.566038 1377.94461,119.823899 1380.91916,122.339623 C1383.89371,124.855346 1385.78432,128.27673 1386.59098,132.603774 L1386.59098,132.603774 Z M1536.67612,181.716981 C1552.00263,181.716981 1563.64876,177.289308 1571.61451,168.433962 L1571.61451,168.433962 L1556.48967,152.735849 C1553.56553,155.251572 1550.6666,157.062893 1547.79288,158.169811 C1544.91916,159.27673 1541.51607,159.830189 1537.58361,159.830189 C1532.34033,159.830189 1527.97933,158.698113 1524.50062,156.433962 C1521.0219,154.169811 1518.67755,150.924528 1517.46757,146.698113 L1517.46757,146.698113 L1577.05946,146.698113 C1577.36195,142.169811 1577.5132,139.805031 1577.5132,139.603774 C1577.5132,130.849057 1575.57218,123.27673 1571.69014,116.886792 C1567.80809,110.496855 1562.5396,105.616352 1555.88467,102.245283 C1549.22974,98.8742138 1541.81857,97.1886792 1533.65115,97.1886792 C1525.08041,97.1886792 1517.36673,99 1510.51014,102.622642 C1503.65354,106.245283 1498.28422,111.251572 1494.40218,117.641509 C1490.52013,124.031447 1488.57911,131.251572 1488.57911,139.301887 C1488.57911,147.45283 1490.57055,154.748428 1494.55343,161.188679 C1498.5363,167.628931 1504.1577,172.660377 1511.41763,176.283019 C1518.67755,179.90566 1527.09705,181.716981 1536.67612,181.716981 Z M1550.59098,131.603774 L1517.01382,131.603774 C1517.82048,127.27673 1519.71109,123.855346 1522.68564,121.339623 C1525.66019,118.823899 1529.36578,117.566038 1533.8024,117.566038 C1538.23902,117.566038 1541.94461,118.823899 1544.91916,121.339623 C1547.89371,123.855346 1549.78432,127.27673 1550.59098,131.603774 L1550.59098,131.603774 Z M1455.56027,181.358491 L1455.56027,143.773585 C1455.56027,136.930818 1457.29963,131.849057 1460.77834,128.528302 C1464.25706,125.207547 1469.0718,123.54717 1475.22257,123.54717 C1476.93672,123.54717 1479.10461,123.698113 1481.72625,124 L1481.72625,124 L1481.72625,98.1886792 C1475.67632,98.1886792 1470.307,99.1194969 1465.61829,100.981132 C1460.92959,102.842767 1457.12317,105.63522 1454.19904,109.358491 L1454.19904,109.358491 L1454.19904,99.5471698 L1426.82307,99.5471698 L1426.82307,181.358491 L1455.56027,181.358491 Z M1625.31078,182.716981 C1630.04989,182.716981 1634.53693,181.861635 1638.77189,180.150943 C1643.00685,178.440252 1646.63681,175.924528 1649.66178,172.603774 L1649.66178,172.603774 L1649.66178,181.358491 L1677.03775,181.358491 L1677.03775,99.5471698 L1648.30054,99.5471698 L1648.30054,138.943396 C1648.30054,145.484277 1646.86368,150.339623 1643.98996,153.509434 C1641.11624,156.679245 1637.41065,158.264151 1632.8732,158.264151 C1628.43658,158.264151 1625.0587,156.855346 1622.73955,154.037736 C1620.42041,151.220126 1619.26084,146.742138 1619.26084,140.603774 L1619.26084,140.603774 L1619.26084,99.5471698 L1590.52363,99.5471698 L1590.52363,145.283019 C1590.52363,157.761006 1593.67464,167.119497 1599.97666,173.358491 C1606.27868,179.597484 1614.72338,182.716981 1625.31078,182.716981 Z M1718.22726,180.358491 L1718.22726,139.754717 C1718.22726,133.616352 1719.53808,129.037736 1722.15972,126.018868 C1724.78136,123 1728.31049,121.490566 1732.74712,121.490566 C1741.01536,121.490566 1745.14949,127.075472 1745.14949,138.245283 L1745.14949,138.245283 L1745.14949,180.358491 L1773.88669,180.358491 L1773.88669,139.754717 C1773.88669,133.616352 1775.19751,129.037736 1777.81915,126.018868 C1780.44079,123 1783.91951,121.490566 1788.2553,121.490566 C1792.18776,121.490566 1795.23793,122.849057 1797.40583,125.566038 C1799.57372,128.283019 1800.65767,132.509434 1800.65767,138.245283 L1800.65767,138.245283 L1800.65767,180.358491 L1829.39488,180.358491 L1829.39488,133.566038 C1829.39488,121.389937 1826.39511,112.283019 1820.39559,106.245283 C1814.39607,100.207547 1806.3547,97.1886792 1796.27146,97.1886792 C1790.42319,97.1886792 1785.02866,98.2955975 1780.08788,100.509434 C1775.1471,102.72327 1771.06339,105.893082 1767.83676,110.018868 C1765.01345,105.691824 1761.33307,102.471698 1756.79562,100.358491 C1752.25817,98.245283 1747.11572,97.1886792 1741.36828,97.1886792 C1736.42749,97.1886792 1731.86483,98.0188679 1727.68029,99.679245 C1723.49575,101.339623 1719.891,103.830189 1716.86603,107.150943 L1716.86603,107.150943 L1716.86603,98.5471698 L1689.49006,98.5471698 L1689.49006,180.358491 L1718.22726,180.358491 Z M2000.92086,180.358491 L2000.92086,157.264151 L1945.56392,157.264151 L1945.56392,137.943396 L1992.60219,137.943396 L1992.60219,115.603774 L1945.56392,115.603774 L1945.56392,97.7924528 L1998.95463,97.7924528 L1998.95463,74.6981132 L1915.91923,74.6981132 L1915.91923,180.358491 L2000.92086,180.358491 Z M2037.37173,180.358491 L2053.10157,158.924528 L2067.77267,180.358491 L2100.59358,180.358491 L2069.28516,138.396226 L2099.53485,98.5471698 L2069.13391,98.5471698 L2054.00906,119.226415 L2039.48921,98.5471698 L2007.12204,98.5471698 L2037.37173,139.45283 L2006.21455,180.358491 L2037.37173,180.358491 Z M2145.96812,181.716981 C2149.90058,181.716981 2153.60617,181.314465 2157.08488,180.509434 C2160.5636,179.704403 2163.51294,178.54717 2165.93292,177.037736 L2165.93292,177.037736 L2158.82424,156.962264 C2156.30343,158.672956 2153.37929,159.528302 2150.05183,159.528302 C2147.43019,159.528302 2145.33792,158.698113 2143.77502,157.037736 C2142.21212,155.377358 2141.43067,153.08805 2141.43067,150.169811 L2141.43067,150.169811 L2141.43067,123 L2160.18547,123 L2160.18547,101.566038 L2141.43067,101.566038 L2141.43067,80.2830189 L2112.69346,80.2830189 L2112.69346,101.566038 L2100.74483,101.566038 L2100.74483,123 L2112.69346,123 L2112.69346,150.471698 C2112.69346,160.836478 2115.56718,168.63522 2121.31462,173.867925 C2127.06206,179.100629 2135.2799,181.716981 2145.96812,181.716981 Z M2217.50864,181.716981 C2232.83515,181.716981 2244.48128,177.289308 2252.44703,168.433962 L2252.44703,168.433962 L2237.32219,152.735849 C2234.39805,155.251572 2231.49912,157.062893 2228.6254,158.169811 C2225.75168,159.27673 2222.34859,159.830189 2218.41613,159.830189 C2213.17285,159.830189 2208.81185,158.698113 2205.33314,156.433962 C2201.85442,154.169811 2199.51007,150.924528 2198.30008,146.698113 L2198.30008,146.698113 L2257.89197,146.698113 C2258.19447,142.169811 2258.34572,139.805031 2258.34572,139.603774 C2258.34572,130.849057 2256.4047,123.27673 2252.52265,116.886792 C2248.64061,110.496855 2243.37212,105.616352 2236.71719,102.245283 C2230.06226,98.8742138 2222.65109,97.1886792 2214.48367,97.1886792 C2205.91292,97.1886792 2198.19925,99 2191.34266,102.622642 C2184.48606,106.245283 2179.11674,111.251572 2175.2347,117.641509 C2171.35265,124.031447 2169.41163,131.251572 2169.41163,139.301887 C2169.41163,147.45283 2171.40307,154.748428 2175.38594,161.188679 C2179.36882,167.628931 2184.99022,172.660377 2192.25015,176.283019 C2199.51007,179.90566 2207.92957,181.716981 2217.50864,181.716981 Z M2231.4235,131.603774 L2197.84634,131.603774 C2198.653,127.27673 2200.5436,123.855346 2203.51816,121.339623 C2206.49271,118.823899 2210.1983,117.566038 2214.63492,117.566038 C2219.07154,117.566038 2222.77713,118.823899 2225.75168,121.339623 C2228.72623,123.855346 2230.61684,127.27673 2231.4235,131.603774 L2231.4235,131.603774 Z M2300.39279,180.358491 L2300.39279,140.811321 C2300.39279,134.371069 2301.88007,129.540881 2304.85462,126.320755 C2307.82917,123.100629 2311.78684,121.490566 2316.72762,121.490566 C2325.7017,121.490566 2330.18873,127.075472 2330.18873,138.245283 L2330.18873,138.245283 L2330.18873,180.358491 L2358.92594,180.358491 L2358.92594,133.566038 C2358.92594,121.389937 2355.82535,112.283019 2349.62416,106.245283 C2343.42297,100.207547 2335.23035,97.1886792 2325.04629,97.1886792 C2319.80301,97.1886792 2314.96306,98.0691824 2310.52644,99.830189 C2306.08981,101.591195 2302.25819,104.132075 2299.03155,107.45283 L2299.03155,107.45283 L2299.03155,98.5471698 L2271.65558,98.5471698 L2271.65558,180.358491 L2300.39279,180.358491 Z M2406.72045,181.716981 C2415.2912,181.716981 2422.62675,180.559748 2428.7271,178.245283 C2434.82746,175.930818 2439.44053,172.735849 2442.56633,168.660377 C2445.69214,164.584906 2447.25504,159.981132 2447.25504,154.849057 C2447.25504,148.610063 2445.61651,143.754717 2442.33946,140.283019 C2439.06241,136.811321 2435.20558,134.421384 2430.76895,133.113208 C2426.33233,131.805031 2420.73614,130.647799 2413.98038,129.641509 C2408.63626,128.836478 2404.80464,128.056604 2402.48549,127.301887 C2400.16635,126.54717 2399.00678,125.213836 2399.00678,123.301887 C2399.00678,121.591195 2400.06552,120.207547 2402.183,119.150943 C2404.30048,118.09434 2407.62794,117.566038 2412.1654,117.566038 C2420.63531,117.566038 2428.50023,119.578616 2435.76015,123.603774 L2435.76015,123.603774 L2444.38132,104.132075 C2440.44886,101.918239 2435.55849,100.207547 2429.71022,99 C2423.86194,97.7924528 2417.96325,97.1886792 2412.01415,97.1886792 C2403.64507,97.1886792 2396.46076,98.3710692 2390.46124,100.735849 C2384.46172,103.100629 2379.89906,106.320755 2376.77326,110.396226 C2373.64746,114.471698 2372.08456,119.125786 2372.08456,124.358491 C2372.08456,130.698113 2373.74829,135.628931 2377.07575,139.150943 C2380.40322,142.672956 2384.36089,145.08805 2388.94876,146.396226 C2393.53663,147.704403 2399.10761,148.761006 2405.66171,149.566038 C2410.80416,150.27044 2414.56016,151 2416.92972,151.754717 C2419.29928,152.509434 2420.48406,153.792453 2420.48406,155.603774 C2420.48406,157.415094 2419.50095,158.798742 2417.53472,159.754717 C2415.56849,160.710692 2412.26623,161.188679 2407.62794,161.188679 C2402.58633,161.188679 2397.4943,160.509434 2392.35185,159.150943 C2387.2094,157.792453 2382.77278,155.955975 2379.04198,153.641509 L2379.04198,153.641509 L2370.42082,173.264151 C2374.45411,175.779874 2379.79823,177.81761 2386.45316,179.377358 C2393.10809,180.937107 2399.86385,181.716981 2406.72045,181.716981 Z M2474.02601,89.490566 C2479.26929,89.490566 2483.50425,88.0062893 2486.73088,85.0377358 C2489.95752,82.0691824 2491.57083,78.3207547 2491.57083,73.7924528 C2491.57083,69.4654088 2489.95752,65.918239 2486.73088,63.1509434 C2483.50425,60.3836478 2479.26929,59 2474.02601,59 C2468.78273,59 2464.54778,60.4591195 2461.32114,63.3773585 C2458.09451,66.2955975 2456.48119,69.918239 2456.48119,74.245283 C2456.48119,78.572327 2458.09451,82.1949686 2461.32114,85.1132075 C2464.54778,88.0314465 2468.78273,89.490566 2474.02601,89.490566 Z M2488.39462,180.358491 L2488.39462,98.5471698 L2459.65741,98.5471698 L2459.65741,180.358491 L2488.39462,180.358491 Z M2548.13775,181.716981 C2557.011,181.716981 2564.97675,179.90566 2572.03501,176.283019 C2579.09327,172.660377 2584.58863,167.628931 2588.52109,161.188679 C2592.45355,154.748428 2594.41978,147.45283 2594.41978,139.301887 C2594.41978,131.150943 2592.45355,123.880503 2588.52109,117.490566 C2584.58863,111.100629 2579.09327,106.119497 2572.03501,102.54717 C2564.97675,98.9748428 2557.011,97.1886792 2548.13775,97.1886792 C2539.26451,97.1886792 2531.32397,98.9748428 2524.31612,102.54717 C2517.30828,106.119497 2511.81292,111.125786 2507.83004,117.566038 C2503.84717,124.006289 2501.85573,131.251572 2501.85573,139.301887 C2501.85573,147.45283 2503.84717,154.748428 2507.83004,161.188679 C2511.81292,167.628931 2517.33349,172.660377 2524.39175,176.283019 C2531.45001,179.90566 2539.36534,181.716981 2548.13775,181.716981 Z M2548.13775,158.924528 C2543.09614,158.924528 2538.96201,157.188679 2535.73538,153.716981 C2532.50875,150.245283 2530.89543,145.440252 2530.89543,139.301887 C2530.89543,133.264151 2532.50875,128.534591 2535.73538,125.113208 C2538.96201,121.691824 2543.09614,119.981132 2548.13775,119.981132 C2553.17937,119.981132 2557.31349,121.691824 2560.54013,125.113208 C2563.76676,128.534591 2565.38008,133.264151 2565.38008,139.301887 C2565.38008,145.440252 2563.76676,150.245283 2560.54013,153.716981 C2557.31349,157.188679 2553.17937,158.924528 2548.13775,158.924528 Z M2636.46685,180.358491 L2636.46685,140.811321 C2636.46685,134.371069 2637.95413,129.540881 2640.92868,126.320755 C2643.90323,123.100629 2647.8609,121.490566 2652.80168,121.490566 C2661.77576,121.490566 2666.26279,127.075472 2666.26279,138.245283 L2666.26279,138.245283 L2666.26279,180.358491 L2695,180.358491 L2695,133.566038 C2695,121.389937 2691.89941,112.283019 2685.69822,106.245283 C2679.49703,100.207547 2671.30441,97.1886792 2661.12035,97.1886792 C2655.87707,97.1886792 2651.03712,98.0691824 2646.6005,99.830189 C2642.16387,101.591195 2638.33225,104.132075 2635.10561,107.45283 L2635.10561,107.45283 L2635.10561,98.5471698 L2607.72964,98.5471698 L2607.72964,180.358491 L2636.46685,180.358491 Z" id="KeystoneEtherumExtension" fill="#000000" fill-rule="nonzero"></path>
        </g>
    </g>
</svg>